<svg width="729.7925292968749px" height="178.43997192382812px" xmlns="http://www.w3.org/2000/svg" viewBox="-114.89626464843747 -14.219985961914062 729.7925292968749 178.43997192382812" style="background: rgba(0, 0, 0, 0);" preserveAspectRatio="xMidYMid"><defs><filter id="editing-extrusion" x="-100%" y="-100%" width="300%" height="300%"><feFlood result="color1" flood-color="#444"></feFlood><feConvolveMatrix order="8,8" divisor="1" kernelMatrix="1 0 0 0 0 0 0 0 0 1 0 0 0 0 0 0 0 0 1 0 0 0 0 0 0 0 0 1 0 0 0 0 0 0 0 0 1 0 0 0 0 0 0 0 0 1 0 0 0 0 0 0 0 0 1 0 0 0 0 0 0 0 0 1" in="SourceAlpha" result="extrude"></feConvolveMatrix><feComposite in="color1" in2="extrude" result="comp-extrude" operator="in"></feComposite><feOffset dx="4" dy="4" in="comp-extrude" result="offset-extrude"></feOffset><feMerge><feMergeNode in="offset-extrude"></feMergeNode><feMergeNode in="SourceGraphic"></feMergeNode></feMerge></filter></defs><g filter="url(#editing-extrusion)"><g transform="translate(-10.45001220703125, 118)"><path d="M12 0L1 0L13-66L34.50-66L50.10-20.60L58.40-66L69.50-65.90L57.30 0L34.40 0L20-43.70L12 0ZM76.35-3L76.35-3L76.35-3Q74-5.60 72.95-9.70L72.95-9.70L72.95-9.70Q71.90-13.80 71.90-20.50L71.90-20.50L71.90-20.50Q71.90-27.20 74.20-33.30L74.20-33.30L74.20-33.30Q76.50-39.40 80.70-43.80L80.70-43.80L80.70-43.80Q89.30-53 103.50-53L103.50-53L103.50-53Q108.60-53 112.30-51.30L112.30-51.30L129.40-53L122-14L122-14Q121.70-12.80 121.70-10.60L121.70-10.60L121.70-10.60Q121.70-8.40 123.05-7L123.05-7L123.05-7Q124.40-5.60 126.40-5.40L126.40-5.40L126.40-5.40Q125.40-2 121.75 0L121.75 0L121.75 0Q118.10 2 114 2L114 2L114 2Q109.90 2 107.15 0.45L107.15 0.45L107.15 0.45Q104.40-1.10 103.60-3.70L103.60-3.70L103.60-3.70Q102-1.20 98.60 0.40L98.60 0.40L98.60 0.40Q95.20 2 90.65 2L90.65 2L90.65 2Q86.10 2 82.40 0.80L82.40 0.80L82.40 0.80Q78.70-0.40 76.35-3ZM97.45-43.60L97.45-43.60L97.45-43.60Q96.30-41.80 95.30-38.75L95.30-38.75L95.30-38.75Q94.30-35.70 92.65-27.55L92.65-27.55L92.65-27.55Q91-19.40 91-13.60L91-13.60L91-13.60Q91-7.80 91.90-6.10L91.90-6.10L91.90-6.10Q92.80-4.40 94.40-4.40L94.40-4.40L94.40-4.40Q97.60-4.40 99.95-7.45L99.95-7.45L99.95-7.45Q102.30-10.50 103.20-15.90L103.20-15.90L108.50-45.20L108.50-45.20Q106.40-47 103.95-47L103.95-47L103.95-47Q101.50-47 100.05-46.20L100.05-46.20L100.05-46.20Q98.60-45.40 97.45-43.60ZM177.10 2L177.10 2L177.10 2Q165 2 165-7.40L165-7.40L165-7.40Q165.10-10 165.90-14.40L165.90-14.40L167.70-23.60L167.70-23.60Q170.40-36.60 170.40-39.50L170.40-39.50L170.40-39.50Q170.40-45.30 167-45.30L167-45.30L167-45.30Q161.30-45.30 158.30-30.40L158.30-30.40L152.40 0L132.30 2L142.70-51.10L159.10-53L157.50-43.20L157.50-43.20Q162.20-53 176.60-53L176.60-53L176.60-53Q183.60-53 186.55-50.05L186.55-50.05L186.55-50.05Q189.50-47.10 189.50-40.50L189.50-40.50L189.50-40.50Q189.50-34.30 186.30-19.80L186.30-19.80L186.30-19.80Q184.80-13.30 184.80-10.85L184.80-10.85L184.80-10.85Q184.80-8.40 186.15-7L186.15-7L186.15-7Q187.50-5.60 189.50-5.40L189.50-5.40L189.50-5.40Q188.50-2 185.05 0L185.05 0L185.05 0Q181.60 2 177.10 2ZM204.60-41.80L204.60-41.80L204.60-41.80Q208-46.60 213.15-49.80L213.15-49.80L213.15-49.80Q218.30-53 224.60-53L224.60-53L224.60-53Q230.90-53 233.90-51L233.90-51L253.50-53L246.70-14.60L246.70-14.60Q243.20 5 235.80 12.70L235.80 12.70L235.80 12.70Q228.70 20 214.90 20L214.90 20L214.90 20Q204.40 20 198.40 16.70L198.40 16.70L198.40 16.70Q192.40 13.40 192.40 7.90L192.40 7.90L192.40 7.90Q192.40 3.80 195.50 1.45L195.50 1.45L195.50 1.45Q198.60-0.90 203.40-0.90L203.40-0.90L203.40-0.90Q207.60-0.90 210.80 1L210.80 1L210.80 1Q212.70 2 213.60 3.40L213.60 3.40L213.60 3.40Q211.30 5.40 211.30 8.70L211.30 8.70L211.30 8.70Q211.30 13 215.30 13L215.30 13L215.30 13Q222 13 225.80-2.80L225.80-2.80L225.80-2.80Q226.90-7.10 227.80-11.40L227.80-11.40L227.80-11.40Q223.30-5.90 213.10-5.90L213.10-5.90L213.10-5.90Q206-5.90 201.90-9.30L201.90-9.30L201.90-9.30Q197.80-12.70 197.80-20.70L197.80-20.70L197.80-20.70Q197.80-25.70 199.50-31.35L199.50-31.35L199.50-31.35Q201.20-37 204.60-41.80ZM217.60-20.40L217.60-20.40L217.60-20.40Q217.60-13.60 221.10-13.60L221.10-13.60L221.10-13.60Q223.50-13.60 225.80-16.20L225.80-16.20L225.80-16.20Q227.60-18.30 228.30-21.40L228.30-21.40L233.40-47.10L233.40-47.10Q232.90-47.20 232.40-47.40L232.40-47.40L232.40-47.40Q231.40-47.80 230.10-47.80L230.10-47.80L230.10-47.80Q224-47.80 220.40-37.80L220.40-37.80L220.40-37.80Q217.60-30 217.60-20.40ZM329.40 2L329.40 2L329.40 2Q317.30 2 317.30-7.40L317.30-7.40L317.30-7.40Q317.30-11.50 319.05-19.45L319.05-19.45L319.05-19.45Q320.80-27.40 321.40-30.60L321.40-30.60L321.40-30.60Q322.80-37.90 322.80-40.20L322.80-40.20L322.80-40.20Q322.80-45.30 319-45.30L319-45.30L319-45.30Q316.50-45.30 314.10-41.85L314.10-41.85L314.10-41.85Q311.70-38.40 310.60-31.50L310.60-31.50L304.40 0L284.90 2L290.30-25.20L290.30-25.20Q291.20-29.70 292-34.80L292-34.80L292-34.80Q292.80-39.90 292.80-40.70L292.80-40.70L292.80-40.70Q292.80-45.30 289.40-45.30L289.40-45.30L289.40-45.30Q287.10-45.30 284.60-41.90L284.60-41.90L284.60-41.90Q282.10-38.50 280.70-31.50L280.70-31.50L274.60 0L254.90 2L265.40-51L281.70-53L280-42.90L280-42.90Q282.60-48.30 287.40-50.65L287.40-50.65L287.40-50.65Q292.20-53 299.70-53L299.70-53L299.70-53Q304-53 306.80-50.90L306.80-50.90L306.80-50.90Q309.60-48.80 310.50-45.40L310.50-45.40L310.50-45.40Q312.20-48.90 316.55-50.95L316.55-50.95L316.55-50.95Q320.90-53 326.25-53L326.25-53L326.25-53Q331.60-53 334.25-51.85L334.25-51.85L334.25-51.85Q336.90-50.70 338.50-48.80L338.50-48.80L338.50-48.80Q341.20-45.30 341.20-38.90L341.20-38.90L341.20-38.90Q341.20-32.60 338.50-19.50L338.50-19.50L338.50-19.50Q337.10-13.10 337.10-10.75L337.10-10.75L337.10-10.75Q337.10-8.40 338.45-7L338.45-7L338.45-7Q339.80-5.60 341.80-5.40L341.80-5.40L341.80-5.40Q340.80-2 337.35 0L337.35 0L337.35 0Q333.90 2 329.40 2ZM353.85-3L353.85-3L353.85-3Q351.50-5.60 350.45-9.70L350.45-9.70L350.45-9.70Q349.40-13.80 349.40-20.50L349.40-20.50L349.40-20.50Q349.40-27.20 351.70-33.30L351.70-33.30L351.70-33.30Q354-39.40 358.20-43.80L358.20-43.80L358.20-43.80Q366.80-53 381-53L381-53L381-53Q386.10-53 389.80-51.30L389.80-51.30L406.90-53L399.50-14L399.50-14Q399.20-12.80 399.20-10.60L399.20-10.60L399.20-10.60Q399.20-8.40 400.55-7L400.55-7L400.55-7Q401.90-5.60 403.90-5.40L403.90-5.40L403.90-5.40Q402.90-2 399.25 0L399.25 0L399.25 0Q395.60 2 391.50 2L391.50 2L391.50 2Q387.40 2 384.65 0.45L384.65 0.45L384.65 0.45Q381.90-1.10 381.10-3.70L381.10-3.70L381.10-3.70Q379.50-1.20 376.10 0.40L376.10 0.40L376.10 0.40Q372.70 2 368.15 2L368.15 2L368.15 2Q363.60 2 359.90 0.80L359.90 0.80L359.90 0.80Q356.20-0.40 353.85-3ZM374.95-43.60L374.95-43.60L374.95-43.60Q373.80-41.80 372.80-38.75L372.80-38.75L372.80-38.75Q371.80-35.70 370.15-27.55L370.15-27.55L370.15-27.55Q368.50-19.40 368.50-13.60L368.50-13.60L368.50-13.60Q368.50-7.80 369.40-6.10L369.40-6.10L369.40-6.10Q370.30-4.40 371.90-4.40L371.90-4.40L371.90-4.40Q375.10-4.40 377.45-7.45L377.45-7.45L377.45-7.45Q379.80-10.50 380.70-15.90L380.70-15.90L386-45.20L386-45.20Q383.90-47 381.45-47L381.45-47L381.45-47Q379-47 377.55-46.20L377.55-46.20L377.55-46.20Q376.10-45.40 374.95-43.60ZM454.60 2L454.60 2L454.60 2Q442.50 2 442.50-7.40L442.50-7.40L442.50-7.40Q442.60-10 443.40-14.40L443.40-14.40L445.20-23.60L445.20-23.60Q447.90-36.60 447.90-39.50L447.90-39.50L447.90-39.50Q447.90-45.30 444.50-45.30L444.50-45.30L444.50-45.30Q438.80-45.30 435.80-30.40L435.80-30.40L429.90 0L409.80 2L420.20-51.10L436.60-53L435-43.20L435-43.20Q439.70-53 454.10-53L454.10-53L454.10-53Q461.10-53 464.05-50.05L464.05-50.05L464.05-50.05Q467-47.10 467-40.50L467-40.50L467-40.50Q467-34.30 463.80-19.80L463.80-19.80L463.80-19.80Q462.30-13.30 462.30-10.85L462.30-10.85L462.30-10.85Q462.30-8.40 463.65-7L463.65-7L463.65-7Q465-5.60 467-5.40L467-5.40L467-5.40Q466-2 462.55 0L462.55 0L462.55 0Q459.10 2 454.60 2ZM504.90-35.10L504.90-35.10L504.90-35.10Q506.30-38.80 506.30-42L506.30-42L506.30-42Q506.30-47.90 501.50-47.90L501.50-47.90L501.50-47.90Q499-47.90 496.95-45.65L496.95-45.65L496.95-45.65Q494.90-43.40 494.90-40.60L494.90-40.60L494.90-40.60Q494.90-38.60 496.50-37L496.50-37L496.50-37Q498.80-34.80 504.70-31.20L504.70-31.20L504.70-31.20Q510.60-27.60 512.85-24.65L512.85-24.65L512.85-24.65Q515.10-21.70 515.10-17.65L515.10-17.65L515.10-17.65Q515.10-13.60 513.15-9.90L513.15-9.90L513.15-9.90Q511.20-6.20 507.70-3.60L507.70-3.60L507.70-3.60Q500.20 2 488.20 2L488.20 2L488.20 2Q481.70 2 476.70-1.40L476.70-1.40L476.70-1.40Q471.70-4.70 471.70-8.60L471.70-8.60L471.70-8.60Q471.70-12.50 474.55-14.80L474.55-14.80L474.55-14.80Q477.40-17.10 481.60-17.10L481.60-17.10L481.60-17.10Q485.80-17.10 488.40-15.50L488.40-15.50L488.40-15.50Q487.10-12.20 487.10-10L487.10-10L487.10-10Q487.10-3.40 492.70-3.40L492.70-3.40L492.70-3.40Q495.10-3.40 496.70-4.90L496.70-4.90L496.70-4.90Q498.30-6.40 498.30-9L498.30-9L498.30-9Q498.30-14.10 489.70-19.50L489.70-19.50L489.70-19.50Q482.70-24.10 481.10-25.90L481.10-25.90L481.10-25.90Q478.40-29.10 478.40-33.10L478.40-33.10L478.40-33.10Q478.40-37.10 480.30-40.90L480.30-40.90L480.30-40.90Q482.20-44.70 485.70-47.40L485.70-47.40L485.70-47.40Q493-53 505.70-53L505.70-53L505.70-53Q512.20-53 516.05-50.40L516.05-50.40L516.05-50.40Q519.90-47.80 519.90-43.40L519.90-43.40L519.90-43.40Q519.90-39 517.25-36.50L517.25-36.50L517.25-36.50Q514.60-34 509.80-34L509.80-34L509.80-34Q506.50-34 504.90-35.10Z" fill="#ccc"></path></g></g><style>text {
  font-size: 64px;
  font-family: Arial Black;
  dominant-baseline: central;
  text-anchor: middle;
}</style></svg>